# xmcd
#
# Track frame offsets: 
#        150
#        14161
#        28917
#        45019
#        64870
#        80375
#        97931
#        110913
#        127318
#        138828
#        158178
#        175036
#        189693
#
# Disc length: 2709 seconds
#
# Revision: 0
# Processed by: cddbd v1.5.2PL0 Copyright (c) Steve Scherf et al.
# Submitted via: ExactAudioCopy v0.99pb5
#
DISCID=b00a930d
DTITLE=Nicole Jukic - Free
DYEAR=2011
DGENRE=Soul
TTITLE0=Make me mad
TTITLE1=Fed up
TTITLE2=Hold
TTITLE3=Free in my mind
TTITLE4=It's time
TTITLE5=Free
TTITLE6=Beat me
TTITLE7=Homeless
TTITLE8=Faith
TTITLE9=My dear listeners
TTITLE10=Music
TTITLE11=Heaven (Intro)
TTITLE12=Heaven
EXTD=
EXTT0=
EXTT1=
EXTT2=
EXTT3=
EXTT4=
EXTT5=
EXTT6=
EXTT7=
EXTT8=
EXTT9=
EXTT10=
EXTT11=
EXTT12=
PLAYORDER=
